<svg width="244" height="250" viewBox="0 0 244 250" fill="none" xmlns="http://www.w3.org/2000/svg">
<path d="M124.611 109.52H122.314H73.7456L34.9961 162.812L123.886 250L127.548 246.407L212.769 162.812L174.026 109.52H124.611ZM165.436 119.995L158.28 151.787L132.958 119.995H165.436ZM123.527 123.024L151.077 157.593H96.5654L123.527 123.024ZM114.136 119.995L89.4468 151.657V151.665L82.3359 119.996H114.136V119.995ZM74.3106 126.541L81.2915 157.593H51.7275L74.3106 126.541ZM84.1064 166.87L108.551 220.299L54.0772 166.87H84.1064ZM123.886 231.529L94.2993 166.87H153.465L123.886 231.529ZM139.213 220.299L163.658 166.87H193.68L139.213 220.299ZM166.474 157.593L173.462 126.541L196.038 157.593H166.474Z" fill="#E36090"/>
<path d="M241.318 88.8213C228.668 88.8213 224.297 85.6475 221.833 83.1909C219.383 80.7266 216.202 76.355 216.202 63.7056C216.202 63.2251 216.156 61.8594 214.645 61.8594C213.143 61.8594 213.089 63.2251 213.089 63.7056C213.089 76.355 209.907 80.7266 207.451 83.1909C204.986 85.6475 200.607 88.8213 187.973 88.8213C187.484 88.8213 186.126 88.8745 186.126 90.3853C186.126 91.8882 187.484 91.9419 187.973 91.9419C200.607 91.9419 204.986 95.1235 207.451 97.5801C209.907 100.037 213.089 104.416 213.089 117.065C213.089 117.554 213.142 118.904 214.645 118.904C216.156 118.904 216.202 117.554 216.202 117.065C216.202 104.416 219.384 100.037 221.833 97.5801C224.297 95.1157 228.668 91.9419 241.318 91.9419C241.806 91.9419 243.164 91.896 243.164 90.3779C243.164 88.8823 241.806 88.8213 241.318 88.8213Z" fill="#E36090"/>
<path d="M53.1694 41.3359C70.5566 41.3359 76.5688 45.7153 79.9487 49.0874C83.3286 52.4673 87.6924 58.4868 87.6924 75.874C87.6924 76.5376 87.7842 78.3994 89.8438 78.3994C91.9189 78.3994 91.98 76.5376 91.98 75.874C91.98 58.4868 96.3516 52.4668 99.7314 49.0874C103.104 45.7075 109.116 41.3359 126.511 41.3359C127.174 41.3359 129.044 41.2749 129.044 39.1997C129.044 37.1396 127.175 37.0483 126.511 37.0483C109.116 37.0483 103.104 32.6841 99.7314 29.312C96.3516 25.9243 91.98 19.9204 91.98 2.53271C91.98 1.86914 91.9189 0 89.8438 0C87.7837 0 87.6924 1.86914 87.6924 2.5332C87.6924 19.9204 83.3281 25.9248 79.9487 29.3125C76.5688 32.6846 70.5571 37.0488 53.1694 37.0488C52.5059 37.0488 50.6362 37.1328 50.6362 39.2002C50.6362 41.2598 52.5054 41.3359 53.1694 41.3359Z" fill="#E36090"/>
<path d="M52.4673 95.7031C52.4673 94.3223 51.2158 94.2686 50.7734 94.2686C39.1387 94.2686 35.1104 91.3467 32.8521 89.0884C30.5938 86.8223 27.6641 82.8018 27.6641 71.167C27.6641 70.7246 27.6182 69.4731 26.2295 69.4731C24.856 69.4731 24.7949 70.7246 24.7949 71.167C24.7949 82.8018 21.873 86.8228 19.6147 89.0884C17.3486 91.3467 13.3203 94.2686 1.69336 94.2686C1.24365 94.269 0 94.3223 0 95.7031C0 97.084 1.24365 97.1377 1.69385 97.1377C13.3213 97.1377 17.3496 100.067 19.6152 102.326C21.8735 104.584 24.7954 108.612 24.7954 120.255C24.7954 120.697 24.8564 121.941 26.23 121.941C27.6187 121.941 27.6646 120.697 27.6646 120.255C27.6646 108.612 30.5942 104.584 32.8525 102.326C35.1108 100.06 39.1392 97.1377 50.7739 97.1377C51.2163 97.1377 52.4673 97.0918 52.4673 95.7031Z" fill="#E36090"/>
</svg>
