<svg width="159" height="161" viewBox="0 0 159 161" fill="none" xmlns="http://www.w3.org/2000/svg">
<path d="M79.5 144.55C65.0959 139.403 53.015 132.147 43.5434 122.926C34.9652 114.598 28.2814 104.412 23.635 92.6881C16.9154 75.6391 15.7002 58.4113 15.5572 46.6521C28.7461 43.3281 39.8619 34.0709 45.3662 21.168C46.1525 19.3451 46.7959 17.5223 47.2963 15.6279H111.668C112.204 17.5223 112.847 19.3809 113.634 21.168C119.138 34.0352 130.254 43.3281 143.443 46.6521C143.336 58.4113 142.12 75.6748 135.365 92.6881C134.15 95.7619 132.792 98.7285 131.29 101.588C136.366 101.695 141.37 102.982 145.802 105.341C160.885 74.0664 157.704 41.2908 157.99 33.0701C156.739 33.2131 155.488 33.3203 154.201 33.3203C142.013 33.3203 131.576 25.9217 127.073 15.4135C125.536 11.875 124.714 7.94336 124.714 3.83301C124.714 2.86797 124.75 1.90293 124.857 0.973633H34.1432C34.2504 1.90293 34.2861 2.86797 34.2861 3.83301C34.2861 7.94336 33.4641 11.8393 31.9271 15.4135C27.4236 25.9574 16.9512 33.3203 4.76308 33.3203C3.47636 33.3203 2.22539 33.2488 0.974409 33.0701C1.51054 47.0453 -8.06836 132.255 79.5 160.026C88.3283 157.238 96.1559 153.843 103.126 150.019C100.516 145.658 99.0152 140.726 98.7293 135.65C92.8676 139.081 86.4697 142.084 79.5 144.55Z" fill="#fff"/>
<path d="M143.193 110.452C139.475 108.45 135.222 107.307 130.719 107.307C129.789 107.307 128.824 107.342 127.931 107.45C115.242 108.772 105.234 119.137 104.412 131.969C104.377 132.541 104.341 133.077 104.341 133.649C104.341 138.581 105.699 143.156 108.022 147.123C112.633 154.844 121.068 160.026 130.683 160.026C145.23 160.026 157.061 148.231 157.061 133.649C157.096 123.605 151.485 114.884 143.193 110.452ZM145.301 127.751L129.432 143.621C128.896 144.157 128.181 144.443 127.395 144.443C126.608 144.443 125.893 144.157 125.357 143.621L116.171 134.435C115.063 133.327 115.063 131.504 116.171 130.396C117.279 129.288 119.102 129.288 120.21 130.396L127.395 137.58L141.227 123.748C142.335 122.64 144.158 122.64 145.266 123.748C146.409 124.82 146.409 126.643 145.301 127.751Z" fill="#fff"/>
<path d="M79.5 34.6428C57.6615 34.6428 39.9334 52.3709 39.9334 74.2094C39.9334 96.0479 57.6615 113.74 79.5 113.74C101.338 113.74 119.067 96.0122 119.067 74.1737C119.067 52.3352 101.338 34.6428 79.5 34.6428ZM74.5676 71.35H84.3967C88.9717 71.35 92.6889 75.7106 92.6889 81.0719C92.6889 86.4333 88.9717 90.7938 84.3967 90.7938H82.5023V100.265C82.5023 101.838 81.2156 103.125 79.643 103.125C78.0703 103.125 76.7836 101.838 76.7836 100.265V90.7938H69.1348C67.5621 90.7938 66.2754 89.5071 66.2754 87.9344C66.2754 86.3618 67.5621 85.075 69.1348 85.075H84.4324C85.6477 85.075 87.0059 83.4309 87.0059 81.0719C87.0059 78.7129 85.6477 77.0688 84.4324 77.0688H74.6033C70.0283 77.0688 66.3111 72.7082 66.3111 67.3469C66.3111 61.9856 70.0283 57.625 74.6033 57.625H76.8551V48.1534C76.8551 46.5807 78.1418 45.294 79.7145 45.294C81.2871 45.294 82.5738 46.5807 82.5738 48.1534V57.625H89.8652C91.4379 57.625 92.7246 58.9118 92.7246 60.4844C92.7246 62.0571 91.4379 63.3438 89.8652 63.3438H74.5676C73.3524 63.3438 71.9941 64.9879 71.9941 67.3469C71.9941 69.7059 73.3524 71.35 74.5676 71.35Z" fill="#E36090"/>
</svg>
